<svg width="18" height="18" viewBox="0 0 18 18" fill="none" xmlns="http://www.w3.org/2000/svg">
<g clip-path="url(#clip0_267_179)">
<path d="M2.17383 4.34864H3.62337M3.62337 4.34864H15.2197M3.62337 4.34864V14.4954C3.62337 14.8799 3.77609 15.2486 4.04793 15.5204C4.31977 15.7922 4.68847 15.945 5.07291 15.945H12.3206C12.7051 15.945 13.0738 15.7922 13.3456 15.5204C13.6174 15.2486 13.7702 14.8799 13.7702 14.4954V4.34864M5.79768 4.34864V2.8991C5.79768 2.51465 5.9504 2.14596 6.22224 1.87411C6.49408 1.60227 6.86278 1.44955 7.24722 1.44955H10.1463C10.5307 1.44955 10.8994 1.60227 11.1713 1.87411C11.4431 2.14596 11.5958 2.51465 11.5958 2.8991V4.34864M7.24722 7.97249V12.3211M10.1463 7.97249V12.3211" stroke="#F21F24" stroke-width="1.44954" stroke-linecap="round" stroke-linejoin="round"/>
</g>
<defs>
<clipPath id="clip0_267_179">
<rect width="17.3945" height="17.3945" fill="white"/>
</clipPath>
</defs>
</svg>
