<svg width="18" height="18" viewBox="0 0 18 18" fill="none" xmlns="http://www.w3.org/2000/svg">
<path d="M3.62337 13.7706H4.65617L11.7408 6.68601L10.708 5.65321L3.62337 12.7378V13.7706ZM2.17383 15.2202V12.1399L11.7408 2.59106C11.8857 2.45818 12.0458 2.35551 12.221 2.28303C12.3961 2.21055 12.5803 2.17432 12.7736 2.17432C12.9669 2.17432 13.1541 2.21055 13.3353 2.28303C13.5165 2.35551 13.6735 2.46422 13.8064 2.60918L14.803 3.62386C14.9479 3.75673 15.0536 3.91377 15.12 4.09496C15.1865 4.27615 15.2197 4.45734 15.2197 4.63854C15.2197 4.83181 15.1865 5.01602 15.12 5.19117C15.0536 5.36633 14.9479 5.52638 14.803 5.67133L5.2541 15.2202H2.17383ZM11.2153 6.17867L10.708 5.65321L11.7408 6.68601L11.2153 6.17867Z" fill="#160022"/>
</svg>
