<svg width="287" height="91" viewBox="0 0 287 91" fill="none" xmlns="http://www.w3.org/2000/svg">
<path d="M41.88 90.48C26.92 90.48 15.84 86.24 8.64 77.76C6.08 74.72 4 70.68 2.4 65.64C0.8 60.6 8.9407e-08 54.48 8.9407e-08 47.28C8.9407e-08 40.08 1.16 33.64 3.48 27.96C5.88 22.2 9.12 17.76 13.2 14.64C21.12 8.8 30.68 5.88 41.88 5.88C45.48 5.88 49 6.16 52.44 6.72C55.88 7.2 58.44 7.72 60.12 8.27999L62.64 9.12L62.28 10.32C56.04 8.16 49.24 7.07999 41.88 7.07999C33.4 7.07999 26.32 9.83999 20.64 15.36C16.32 19.44 13.28 25.44 11.52 33.36C10.48 37.84 9.96 43.32 9.96 49.8C9.96 56.28 10.88 62.28 12.72 67.8C14.56 73.24 16.64 77.28 18.96 79.92C21.36 82.56 24.24 84.68 27.6 86.28C30.96 87.8 33.64 88.68 35.64 88.92C37.64 89.16 40 89.28 42.72 89.28C45.52 89.28 49.24 88.96 53.88 88.32V63.6H39.36V62.4H69V63.6H63.84V87.24C57.76 89.4 50.44 90.48 41.88 90.48ZM89.6259 90C82.5859 90 78.1459 88.16 76.3059 84.48C75.9059 83.68 75.7059 82.96 75.7059 82.32V0.119998H84.1059V81.48C84.1059 83.8 84.5459 85.6 85.4259 86.88C86.3859 88.08 87.3459 88.72 88.3059 88.8L89.6259 89.04H93.3459V90H89.6259ZM124.857 90.48C116.457 90.48 109.617 88.08 104.337 83.28C99.0572 78.48 96.4172 71.08 96.4172 61.08C96.4172 51.08 99.1372 43.32 104.577 37.8C110.097 32.28 117.057 29.52 125.457 29.52C133.937 29.52 140.817 31.92 146.097 36.72C151.377 41.52 154.017 48.92 154.017 58.92C154.017 68.92 151.257 76.68 145.737 82.2C140.297 87.72 133.337 90.48 124.857 90.48ZM125.697 30.48C119.617 30.48 114.577 33.2 110.577 38.64C106.577 44 104.577 51.52 104.577 61.2C104.577 70.8 106.417 77.92 110.097 82.56C113.777 87.2 118.657 89.52 124.737 89.52C130.817 89.52 135.857 86.84 139.857 81.48C143.857 76.04 145.857 68.52 145.857 58.92C145.857 49.24 144.017 42.08 140.337 37.44C136.657 32.8 131.777 30.48 125.697 30.48ZM242.613 30.72L243.333 30C243.653 30.16 244.053 30.64 244.533 31.44C245.093 32.24 245.413 32.96 245.493 33.6C245.653 34.24 245.733 34.84 245.733 35.4C245.733 37.56 245.253 39.76 244.293 42L222.453 90H221.253L203.973 43.56L182.853 90H181.653L159.333 30H167.733L186.093 79.68L203.373 42.12L198.933 30H207.333L225.693 79.68L243.093 42C244.053 40.32 244.533 38.32 244.533 36C244.533 33.68 243.893 31.92 242.613 30.72ZM275.314 35.16V32.64C271.714 34.08 268.434 37 265.474 41.4C262.514 45.72 260.954 49.8 260.794 53.64V90H252.394V30H260.794V49.08C262.074 44.44 264.514 40.08 268.114 36C271.714 31.84 275.794 29.68 280.354 29.52H280.834C282.434 29.52 283.754 30.08 284.794 31.2C285.914 32.24 286.474 33.56 286.474 35.16C286.474 36.76 285.914 38.08 284.794 39.12C283.754 40.16 282.434 40.68 280.834 40.68C279.234 40.68 277.914 40.16 276.874 39.12C275.834 38.08 275.314 36.76 275.314 35.16Z" fill="black"/>
</svg>
