<svg width="25" height="24" viewBox="0 0 25 24" fill="none" xmlns="http://www.w3.org/2000/svg">
<path d="M10.4678 0.993336C11.2393 -0.331076 13.1526 -0.331076 13.9241 0.993336L16.5444 5.49156C16.8195 5.96374 17.2757 6.30281 17.8072 6.42997L22.8562 7.63806C24.3024 7.9841 24.8786 9.73127 23.922 10.8698L20.4596 14.9906C20.1196 15.3952 19.9536 15.918 19.9978 16.4446L20.449 21.816C20.5759 23.3261 19.0425 24.4232 17.6541 23.8156L12.9979 21.7776C12.4867 21.5539 11.9052 21.5539 11.394 21.7776L6.73775 23.8156C5.34941 24.4232 3.81599 23.3261 3.94285 21.816L4.39407 16.4446C4.43831 15.918 4.2723 15.3952 3.93232 14.9906L0.469825 10.8698C-0.486776 9.73127 0.0894487 7.9841 1.53565 7.63806L6.5847 6.42997C7.11614 6.30281 7.57242 5.96374 7.84747 5.49156L10.4678 0.993336Z" fill="#6F97AD"/>
</svg>
